<svg id="visual" viewBox="0 0 960 300" width="960" height="300" xmlns="http://www.w3.org/2000/svg" xmlns:xlink="http://www.w3.org/1999/xlink" version="1.1"><rect x="0" y="0" width="960" height="300" fill="#85006e"></rect><g transform="translate(487.90862853771176 164.57874334100612)"><path d="M71.8 -105.8C84.8 -89.3 81.4 -57.3 87.6 -30.3C93.8 -3.3 109.7 18.7 108.3 38.9C106.8 59 88.1 77.2 67.2 85.6C46.2 94 23.1 92.5 4.2 86.7C-14.7 80.9 -29.4 70.8 -52.5 63.1C-75.7 55.5 -107.3 50.3 -118.8 34.1C-130.3 17.8 -121.7 -9.5 -109.3 -31.7C-96.8 -53.9 -80.4 -71 -61.6 -85.6C-42.7 -100.1 -21.4 -112.1 4 -117.6C29.4 -123.1 58.8 -122.2 71.8 -105.8" fill="#bf006e"></path></g></svg>