<svg id="visual" viewBox="0 0 960 300" width="960" height="300" xmlns="http://www.w3.org/2000/svg" xmlns:xlink="http://www.w3.org/1999/xlink" version="1.1"><rect x="0" y="0" width="960" height="300" fill="#85006e"></rect><g transform="translate(471.08032189168847 158.26218744981674)"><path d="M81 -105C104.8 -94.2 123.7 -70.3 131.4 -43.4C139.2 -16.6 135.7 13.2 121.3 33.9C106.9 54.5 81.7 66.1 59.7 75.8C37.6 85.4 18.8 93.2 -1.7 95.5C-22.1 97.8 -44.3 94.6 -56.2 81.6C-68.1 68.7 -69.7 45.9 -82.2 23C-94.8 0.1 -118.3 -23 -117.6 -42.3C-117 -61.7 -92.3 -77.4 -68.7 -88.2C-45.1 -99 -22.5 -105 3 -109.2C28.6 -113.4 57.2 -115.7 81 -105" fill="#bf006e"></path></g></svg>