<svg id="visual" viewBox="0 0 960 300" width="960" height="300" xmlns="http://www.w3.org/2000/svg" xmlns:xlink="http://www.w3.org/1999/xlink" version="1.1"><rect x="0" y="0" width="960" height="300" fill="#110c13"></rect><path d="M0 87L22.8 92.3C45.7 97.7 91.3 108.3 137 111.3C182.7 114.3 228.3 109.7 274 109.3C319.7 109 365.3 113 411.2 115.3C457 117.7 503 118.3 548.8 112.2C594.7 106 640.3 93 686 86.3C731.7 79.7 777.3 79.3 823 86.7C868.7 94 914.3 109 937.2 116.5L960 124L960 0L937.2 0C914.3 0 868.7 0 823 0C777.3 0 731.7 0 686 0C640.3 0 594.7 0 548.8 0C503 0 457 0 411.2 0C365.3 0 319.7 0 274 0C228.3 0 182.7 0 137 0C91.3 0 45.7 0 22.8 0L0 0Z" fill="#5c0000"></path><path d="M0 62L22.8 68.7C45.7 75.3 91.3 88.7 137 95C182.7 101.3 228.3 100.7 274 96C319.7 91.3 365.3 82.7 411.2 82.5C457 82.3 503 90.7 548.8 91.7C594.7 92.7 640.3 86.3 686 82.5C731.7 78.7 777.3 77.3 823 78.7C868.7 80 914.3 84 937.2 86L960 88L960 0L937.2 0C914.3 0 868.7 0 823 0C777.3 0 731.7 0 686 0C640.3 0 594.7 0 548.8 0C503 0 457 0 411.2 0C365.3 0 319.7 0 274 0C228.3 0 182.7 0 137 0C91.3 0 45.7 0 22.8 0L0 0Z" fill="#6d001b"></path><path d="M0 64L22.8 62.5C45.7 61 91.3 58 137 55.8C182.7 53.7 228.3 52.3 274 51.2C319.7 50 365.3 49 411.2 49.3C457 49.7 503 51.3 548.8 53.3C594.7 55.3 640.3 57.7 686 61C731.7 64.3 777.3 68.7 823 66.3C868.7 64 914.3 55 937.2 50.5L960 46L960 0L937.2 0C914.3 0 868.7 0 823 0C777.3 0 731.7 0 686 0C640.3 0 594.7 0 548.8 0C503 0 457 0 411.2 0C365.3 0 319.7 0 274 0C228.3 0 182.7 0 137 0C91.3 0 45.7 0 22.8 0L0 0Z" fill="#7b0032"></path><path d="M0 33L22.8 32.5C45.7 32 91.3 31 137 32.8C182.7 34.7 228.3 39.3 274 42C319.7 44.7 365.3 45.3 411.2 44.5C457 43.7 503 41.3 548.8 41.2C594.7 41 640.3 43 686 43.8C731.7 44.7 777.3 44.3 823 44C868.7 43.7 914.3 43.3 937.2 43.2L960 43L960 0L937.2 0C914.3 0 868.7 0 823 0C777.3 0 731.7 0 686 0C640.3 0 594.7 0 548.8 0C503 0 457 0 411.2 0C365.3 0 319.7 0 274 0C228.3 0 182.7 0 137 0C91.3 0 45.7 0 22.8 0L0 0Z" fill="#85004d"></path><path d="M0 31L22.8 29.8C45.7 28.7 91.3 26.3 137 26.8C182.7 27.3 228.3 30.7 274 30.8C319.7 31 365.3 28 411.2 24.3C457 20.7 503 16.3 548.8 16.7C594.7 17 640.3 22 686 25.2C731.7 28.3 777.3 29.7 823 30.3C868.7 31 914.3 31 937.2 31L960 31L960 0L937.2 0C914.3 0 868.7 0 823 0C777.3 0 731.7 0 686 0C640.3 0 594.7 0 548.8 0C503 0 457 0 411.2 0C365.3 0 319.7 0 274 0C228.3 0 182.7 0 137 0C91.3 0 45.7 0 22.8 0L0 0Z" fill="#85006e"></path></svg>