<svg id="visual" viewBox="0 0 960 300" width="960" height="300" xmlns="http://www.w3.org/2000/svg" xmlns:xlink="http://www.w3.org/1999/xlink" version="1.1"><rect x="0" y="0" width="960" height="300" fill="#110c13"></rect><path d="M0 96L22.8 94.7C45.7 93.3 91.3 90.7 137 90.3C182.7 90 228.3 92 274 95.5C319.7 99 365.3 104 411.2 109C457 114 503 119 548.8 120.7C594.7 122.3 640.3 120.7 686 115.5C731.7 110.3 777.3 101.7 823 100.7C868.7 99.7 914.3 106.3 937.2 109.7L960 113L960 0L937.2 0C914.3 0 868.7 0 823 0C777.3 0 731.7 0 686 0C640.3 0 594.7 0 548.8 0C503 0 457 0 411.2 0C365.3 0 319.7 0 274 0C228.3 0 182.7 0 137 0C91.3 0 45.7 0 22.8 0L0 0Z" fill="#85006e"></path><path d="M0 93L22.8 89.5C45.7 86 91.3 79 137 76.5C182.7 74 228.3 76 274 76C319.7 76 365.3 74 411.2 75.8C457 77.7 503 83.3 548.8 81.2C594.7 79 640.3 69 686 70.8C731.7 72.7 777.3 86.3 823 89.3C868.7 92.3 914.3 84.7 937.2 80.8L960 77L960 0L937.2 0C914.3 0 868.7 0 823 0C777.3 0 731.7 0 686 0C640.3 0 594.7 0 548.8 0C503 0 457 0 411.2 0C365.3 0 319.7 0 274 0C228.3 0 182.7 0 137 0C91.3 0 45.7 0 22.8 0L0 0Z" fill="#85004d"></path><path d="M0 58L22.8 61C45.7 64 91.3 70 137 69.2C182.7 68.3 228.3 60.7 274 58.2C319.7 55.7 365.3 58.3 411.2 62.7C457 67 503 73 548.8 76.2C594.7 79.3 640.3 79.7 686 78.7C731.7 77.7 777.3 75.3 823 69.7C868.7 64 914.3 55 937.2 50.5L960 46L960 0L937.2 0C914.3 0 868.7 0 823 0C777.3 0 731.7 0 686 0C640.3 0 594.7 0 548.8 0C503 0 457 0 411.2 0C365.3 0 319.7 0 274 0C228.3 0 182.7 0 137 0C91.3 0 45.7 0 22.8 0L0 0Z" fill="#7b0032"></path><path d="M0 35L22.8 36.5C45.7 38 91.3 41 137 41.5C182.7 42 228.3 40 274 41.5C319.7 43 365.3 48 411.2 48.3C457 48.7 503 44.3 548.8 42.2C594.7 40 640.3 40 686 42.3C731.7 44.7 777.3 49.3 823 47.7C868.7 46 914.3 38 937.2 34L960 30L960 0L937.2 0C914.3 0 868.7 0 823 0C777.3 0 731.7 0 686 0C640.3 0 594.7 0 548.8 0C503 0 457 0 411.2 0C365.3 0 319.7 0 274 0C228.3 0 182.7 0 137 0C91.3 0 45.7 0 22.8 0L0 0Z" fill="#6d001b"></path><path d="M0 25L22.8 26C45.7 27 91.3 29 137 29.7C182.7 30.3 228.3 29.7 274 27.8C319.7 26 365.3 23 411.2 23.5C457 24 503 28 548.8 26.7C594.7 25.3 640.3 18.7 686 16C731.7 13.3 777.3 14.7 823 15.3C868.7 16 914.3 16 937.2 16L960 16L960 0L937.2 0C914.3 0 868.7 0 823 0C777.3 0 731.7 0 686 0C640.3 0 594.7 0 548.8 0C503 0 457 0 411.2 0C365.3 0 319.7 0 274 0C228.3 0 182.7 0 137 0C91.3 0 45.7 0 22.8 0L0 0Z" fill="#5c0000"></path></svg>